<?xml version="1.0" standalone="no"?>
<!DOCTYPE svg PUBLIC "-//W3C//DTD SVG 20010904//EN"
 "http://www.w3.org/TR/2001/REC-SVG-20010904/DTD/svg10.dtd">
<svg version="1.0" xmlns="http://www.w3.org/2000/svg"
 width="300.000000pt" height="300.000000pt" viewBox="0 0 300.000000 300.000000"
 preserveAspectRatio="xMidYMid meet">

<g transform="translate(0.000000,300.000000) scale(0.100000,-0.100000)"
fill="#000000" stroke="none">
<path d="M0 1500 l0 -1500 1500 0 1500 0 0 1500 0 1500 -1500 0 -1500 0 0
-1500z m938 1141 l237 -118 63 30 62 31 200 -99 201 -100 -101 -50 -100 -50 0
-62 0 -63 -50 25 -50 25 0 63 0 63 -45 22 c-25 12 -48 22 -50 22 -3 0 -5 -27
-5 -60 l0 -60 -100 50 -100 50 0 50 0 50 -252 126 -252 126 44 24 c25 13 48
23 53 24 4 0 114 -53 245 -119z m620 16 l43 -23 -50 -24 -51 -23 -51 23 -50
24 43 23 c24 12 50 22 58 22 8 0 34 -10 58 -22z m250 -125 l93 -48 -51 -24
-51 -24 -100 49 -99 49 42 23 c24 12 50 22 58 22 8 0 57 -21 108 -47z m187
-419 c162 -82 295 -150 295 -153 0 -4 -20 -16 -45 -28 l-45 -22 -295 147
c-162 82 -295 150 -295 153 0 5 74 46 87 49 2 1 136 -65 298 -146z m-1090
-190 l195 -98 0 -47 c0 -27 -2 -48 -5 -48 -3 0 -115 55 -250 122 l-245 123 43
22 c23 12 48 22 54 23 7 0 101 -44 208 -97z m295 -43 l0 -60 -50 25 -50 25 0
60 0 60 50 -25 50 -25 0 -60z m300 -150 l0 -60 -100 50 -100 50 0 60 0 60 100
-50 100 -50 0 -60z m-600 -90 c0 -33 -2 -60 -5 -60 -3 0 -48 21 -100 47 l-95
48 0 62 0 63 100 -50 100 -50 0 -60z m1110 -269 l295 -148 -50 -26 -50 -25
-300 150 -299 150 44 24 c25 13 50 23 55 23 6 0 143 -67 305 -148z m-510 -131
c0 -33 -2 -60 -5 -60 -3 0 -93 44 -200 97 l-195 98 0 62 0 63 200 -100 200
-100 0 -60z m700 -250 c0 -33 -2 -60 -5 -60 -3 0 -70 33 -150 72 l-145 73 0
62 0 63 150 -75 150 -75 0 -60z m-795 -137 l95 -48 0 -57 c0 -32 -2 -58 -5
-58 -3 0 -48 21 -100 47 l-95 48 0 57 c0 32 2 58 5 58 3 0 48 -21 100 -47z"/>
</g>
</svg>
